<svg xmlns="http://www.w3.org/2000/svg" viewBox="0 0 64 64">
  <rect width="64" height="64" rx="12" fill="#003399"/>
  <!-- EU circle of stars -->
  <g transform="translate(32,32)">
    <polygon points="0,-14 1.6,-5 6,-5 2.8,-2 4.2,6 0,2 -4.2,6 -2.8,-2 -6,-5 -1.6,-5" fill="#ffcc00" transform="rotate(0) translate(0,-10) scale(0.7)"/>
    <polygon points="0,-14 1.6,-5 6,-5 2.8,-2 4.2,6 0,2 -4.2,6 -2.8,-2 -6,-5 -1.6,-5" fill="#ffcc00" transform="rotate(30) translate(0,-10) scale(0.7)"/>
    <polygon points="0,-14 1.6,-5 6,-5 2.8,-2 4.2,6 0,2 -4.2,6 -2.8,-2 -6,-5 -1.6,-5" fill="#ffcc00" transform="rotate(60) translate(0,-10) scale(0.7)"/>
    <polygon points="0,-14 1.6,-5 6,-5 2.8,-2 4.2,6 0,2 -4.2,6 -2.8,-2 -6,-5 -1.6,-5" fill="#ffcc00" transform="rotate(90) translate(0,-10) scale(0.7)"/>
    <polygon points="0,-14 1.6,-5 6,-5 2.8,-2 4.2,6 0,2 -4.2,6 -2.8,-2 -6,-5 -1.6,-5" fill="#ffcc00" transform="rotate(120) translate(0,-10) scale(0.7)"/>
    <polygon points="0,-14 1.6,-5 6,-5 2.8,-2 4.2,6 0,2 -4.2,6 -2.8,-2 -6,-5 -1.6,-5" fill="#ffcc00" transform="rotate(150) translate(0,-10) scale(0.7)"/>
    <polygon points="0,-14 1.6,-5 6,-5 2.8,-2 4.2,6 0,2 -4.2,6 -2.8,-2 -6,-5 -1.6,-5" fill="#ffcc00" transform="rotate(180) translate(0,-10) scale(0.7)"/>
    <polygon points="0,-14 1.6,-5 6,-5 2.8,-2 4.2,6 0,2 -4.2,6 -2.8,-2 -6,-5 -1.6,-5" fill="#ffcc00" transform="rotate(210) translate(0,-10) scale(0.7)"/>
    <polygon points="0,-14 1.6,-5 6,-5 2.8,-2 4.2,6 0,2 -4.2,6 -2.8,-2 -6,-5 -1.6,-5" fill="#ffcc00" transform="rotate(240) translate(0,-10) scale(0.7)"/>
    <polygon points="0,-14 1.6,-5 6,-5 2.8,-2 4.2,6 0,2 -4.2,6 -2.8,-2 -6,-5 -1.6,-5" fill="#ffcc00" transform="rotate(270) translate(0,-10) scale(0.7)"/>
    <polygon points="0,-14 1.6,-5 6,-5 2.8,-2 4.2,6 0,2 -4.2,6 -2.8,-2 -6,-5 -1.6,-5" fill="#ffcc00" transform="rotate(300) translate(0,-10) scale(0.7)"/>
    <polygon points="0,-14 1.6,-5 6,-5 2.8,-2 4.2,6 0,2 -4.2,6 -2.8,-2 -6,-5 -1.6,-5" fill="#ffcc00" transform="rotate(330) translate(0,-10) scale(0.7)"/>
  </g>
</svg>
